PathFileType	4	(X/Y/Z)	/Users/visionmauri/1_9_1_f_Sports2D/1_9_1_f_Sports2D_px_person00.trc
DataRate	CameraRate	NumFrames	NumMarkers	Units	OrigDataRate	OrigDataStartFrame	OrigNumFrames
30.0	30.0	9	22	m	30.0	305	349
Frame#	Time	Hip			RHip			RKnee			RAnkle			RBigToe			RSmallToe			RHeel			LHip			LKnee			LAnkle			LBigToe			LSmallToe			LHeel			Neck			Head			Nose			RShoulder			RElbow			RWrist			LShoulder			LElbow			LWrist			
		X1	Y1	Z1	X2	Y2	Z2	X3	Y3	Z3	X4	Y4	Z4	X5	Y5	Z5	X6	Y6	Z6	X7	Y7	Z7	X8	Y8	Z8	X9	Y9	Z9	X10	Y10	Z10	X11	Y11	Z11	X12	Y12	Z12	X13	Y13	Z13	X14	Y14	Z14	X15	Y15	Z15	X16	Y16	Z16	X17	Y17	Z17	X18	Y18	Z18	X19	Y19	Z19	X20	Y20	Z20	X21	Y21	Z21	X22	Y22	Z22
305	10.19588122605364	562.3926894859125	805.4777066666392	0.0	498.21021181408037	825.7735365222827	0.0	512.8245285436708	1079.826271738962	0.0	535.9084919407377	1348.1185233376011	0.0	555.2234211575195	1449.3713611991736	0.0	511.9663294690693	1439.6163567686153	0.0	552.1910855911098	1379.042271910877	0.0	628.8601590758348	814.91299406959	0.0	647.8213848531267	1021.7039088056347	0.0	619.6316962549919	1238.0786083784378	0.0	622.4169193703601	1373.1611685078865	0.0	653.9385143693751	1355.8929662108626	0.0	598.0003165862086	1255.9809429213485	0.0	566.1577449041881	439.6026975947841	0.0	587.3351934099829	297.7952649721055	0.0	583.0755668841853	428.6057248268378	0.0	439.0630618401319	475.5130108098071	0.0	394.19778738926277	626.5959597294681	0.0	369.69017848036873	773.5591807686325	0.0	684.6112554250013	473.14563240696083	0.0	721.5575500263479	633.506641417577	0.0	739.1751314274014	653.6229110861401	0.0
306	10.229310344827585	562.8937349325824	802.8111195550216	0.0	499.3388901760901	825.1829439479336	0.0	513.4900098636847	1080.0466803142442	0.0	536.769301373963	1348.760698114363	0.0	553.6361241936148	1451.0210722452478	0.0	511.15294864993433	1441.1727253474521	0.0	552.0273608051665	1379.7071075944546	0.0	630.74648097707	813.3626298959877	0.0	646.9596832025655	1015.5061597797597	0.0	619.9146073195967	1249.3317738086992	0.0	624.0563577748953	1382.2739431974992	0.0	655.6493956878809	1365.773703350196	0.0	599.706536896149	1275.5288474504157	0.0	566.2263116974561	437.1100388007336	0.0	586.517571584885	297.52288911613255	0.0	583.1186326435352	427.90276913284623	0.0	437.5268337217135	471.6295915496464	0.0	391.77478950058435	624.9938702807453	0.0	368.5112318136773	774.1602043337942	0.0	683.6797586417421	469.7858680545608	0.0	720.8554158101831	630.8355126322297	0.0	739.2307896342837	651.3030701152964	0.0
307	10.262739463601532	562.8053461515154	801.2605232841488	0.0	498.98496138129195	825.0457919110545	0.0	513.6075642354892	1081.2463806026385	0.0	537.6198593398063	1350.4871653586295	0.0	552.0560439383778	1453.1485443269833	0.0	509.9238075727906	1443.6742661937792	0.0	552.7239066399309	1381.515341919302	0.0	631.6666064215755	812.1791874771629	0.0	646.5501031340748	1015.709781962081	0.0	619.782079822771	1265.1628689368692	0.0	627.1575783963764	1396.0032674596885	0.0	658.6754937568242	1380.1238006630447	0.0	599.9259182797966	1297.36238551745	0.0	565.0973331084896	436.13439349552056	0.0	586.9168346698359	295.76611563141927	0.0	584.3511723632879	427.3213360738409	0.0	435.9597656077671	470.2613315394743	0.0	389.7455675321996	623.9737628294922	0.0	366.7270989928906	773.6820224625826	0.0	683.3612096580142	466.1450916951041	0.0	719.951492339939	626.9984609041751	0.0	738.792697571897	648.276058796011	0.0
308	10.29616858237548	562.4159948830669	801.3255217222653	0.0	497.90313308291303	824.4931086372123	0.0	513.4066604063124	1081.4140672125454	0.0	538.1863667091635	1352.3091925529482	0.0	550.6053385470472	1454.0609508394987	0.0	508.6450816465053	1445.5629300772257	0.0	554.2621903572737	1384.006127379512	0.0	631.3915931720007	811.3968827537898	0.0	646.1284818659984	1020.903730044093	0.0	620.3460669386484	1285.0756649749346	0.0	630.5805544274668	1413.1684754101502	0.0	661.7828562556085	1399.0947885461708	0.0	600.4096742604456	1321.4012825032692	0.0	563.4447554329809	435.6519877310737	0.0	587.6573673707142	291.4789113366375	0.0	585.2044751722888	424.75458199548456	0.0	434.70035981668985	470.24490587886186	0.0	387.84005300587455	623.1019569838408	0.0	365.04454297708963	772.1866476120293	0.0	683.7646385266696	463.84561917114036	0.0	719.2662648203942	623.8537684119543	0.0	736.9839528418929	645.0474558266845	0.0
309	10.329597701149424	562.6053851264553	802.3791534362105	0.0	497.1039807874786	824.466760331103	0.0	513.1670127747699	1080.5401415475037	0.0	538.1344613740467	1353.1018345149228	0.0	549.4765358536871	1453.6030582683782	0.0	507.9287416497288	1446.0198652102622	0.0	555.2240222196675	1385.8733505428233	0.0	630.9218624782538	811.587812422034	0.0	645.1420357579376	1027.0637596700335	0.0	622.5607645151849	1305.9322792739501	0.0	634.0270180176439	1428.9058355644472	0.0	664.8234431193761	1417.6042246041336	0.0	603.7747674853384	1346.4264547572427	0.0	562.558597881436	434.6800444618986	0.0	587.6430389895683	286.5802605037822	0.0	584.3697593060409	420.37676535087996	0.0	433.61935007430196	470.2645441559979	0.0	386.0221220780735	622.4267234817327	0.0	363.9454385728651	771.1135442472884	0.0	683.9216292154499	463.240817665322	0.0	718.7848141056373	619.1591976809398	0.0	734.2281697068464	645.03898611829	0.0
310	10.363026819923371	563.650913818096	803.5265463439032	0.0	496.629140525429	826.019638258678	0.0	512.3423521121325	1080.9339108570211	0.0	537.5855780847461	1353.0917271117928	0.0	549.0942293205819	1452.6708026848569	0.0	507.85618848071437	1445.6799442412557	0.0	553.9687524106516	1387.6636007445584	0.0	631.3094813151747	813.6021042129067	0.0	643.7703028774439	1032.2804304189308	0.0	626.3593655498147	1322.5890968839394	0.0	639.4398541453883	1438.2031191390745	0.0	670.2035883017882	1428.3735214075302	0.0	609.840033408768	1366.8988377560645	0.0	562.5110718315011	433.71318741775684	0.0	587.2382988106369	283.10224584286505	0.0	582.9376410245758	416.7466708522487	0.0	432.7161014328855	471.1196053028761	0.0	384.09783671835004	622.8772510711433	0.0	362.78370291248825	771.3811912263762	0.0	683.5439507618083	463.3303553926021	0.0	718.2041250321	612.7339906315939	0.0	732.7671499530829	651.8890806501871	0.0
311	10.396455938697319	564.7190589134138	804.5129503578169	0.0	496.1906632304425	828.7452924916582	0.0	510.6166051359447	1083.4600618237791	0.0	537.076243851986	1353.1934060975414	0.0	549.3484240460332	1451.1675898659698	0.0	507.95682293892105	1445.102140513387	0.0	551.0691077881306	1389.8506910245274	0.0	632.0987892416697	817.2693545676435	0.0	642.358760080974	1036.3302843343133	0.0	631.4050977255827	1333.3926056967366	0.0	647.9987207468057	1440.425343163489	0.0	678.9951719122862	1430.3984276456622	0.0	616.896180902759	1380.9579709159393	0.0	562.6879597066492	433.1712023922619	0.0	587.3238664282514	281.28539063614943	0.0	582.31607536759	415.6114831329961	0.0	432.1312739282228	473.1052527576401	0.0	381.8480545005967	624.7125363629552	0.0	361.05963930123477	772.3505778176316	0.0	683.3920883973873	463.3467836153163	0.0	718.1601106272385	609.9423353211259	0.0	733.802193050001	659.9137548162994	0.0
312	10.429885057471264	564.3546490568831	805.4832168140966	0.0	495.5771104561361	831.0982439333714	0.0	508.94723378709824	1086.6412703980873	0.0	536.9594133586586	1353.5397331387453	0.0	549.6504638254083	1448.8700357822563	0.0	508.1073569000585	1444.2518747665554	0.0	549.2553372042099	1391.1316125180756	0.0	631.6879123986574	820.7269647770968	0.0	640.5963289124003	1039.972134969356	0.0	637.0584070502359	1341.2028882765414	0.0	657.5922394066247	1438.4048276303868	0.0	687.9061530985373	1429.4754773343118	0.0	623.7240379574049	1390.705246828342	0.0	563.011284361547	432.2947235586945	0.0	587.6039558347851	281.0419854956458	0.0	582.3272053488815	416.1347637504755	0.0	431.79552836278697	474.827548434471	0.0	380.0318423176005	627.0048150100845	0.0	359.48945328406796	772.9490278734087	0.0	683.9249503530639	463.47307894108127	0.0	719.0952542250043	613.4199446904618	0.0	736.0808963504553	659.942403945937	0.0
313	10.46331417624521	562.3230973953075	806.3891254060015	0.0	494.81933045956197	832.3518582033475	0.0	508.4557320511703	1089.6118671213062	0.0	537.2235768235189	1353.645167932044	0.0	549.6294502267086	1446.6661873034411	0.0	508.3213879176006	1443.1723500050207	0.0	549.8796601908938	1391.3276369763585	0.0	629.4382325215728	822.4500080401556	0.0	638.5276540749123	1044.0827734352383	0.0	642.437771640228	1348.5124571519702	0.0	665.355157786711	1435.0031995300678	0.0	693.6976040252359	1430.6013984765157	0.0	629.2111008426981	1398.1327808405133	0.0	563.8976533834473	430.7595672878063	0.0	587.442633990748	282.2872553073542	0.0	582.0670480460857	417.4282972861329	0.0	432.1497571564962	475.38953152410676	0.0	379.7794549922478	628.6239855549085	0.0	359.15348987937597	772.8915687905096	0.0	684.6952093998718	464.33063117302174	0.0	720.3853096234467	619.8901559783642	0.0	737.8736479516347	654.1425455409817	0.0
